<?xml version="1.0" encoding="UTF-8"?>
<svg xmlns="http://www.w3.org/2000/svg" viewBox="0 0 832 291" width="832" height="291" role="img" aria-label="haoleng logo">
  <title>haoleng logo</title>
  <path d="M 123.0 40.0 L 116.0 42.0 L 101.0 51.0 L 82.0 68.0 L 68.0 87.0 L 60.0 104.0 L 54.0 128.0 L 68.0 104.0 L 84.0 89.0 L 86.0 90.0 L 86.0 180.0 L 82.0 195.0 L 78.0 203.0 L 40.0 250.0 L 42.0 250.0 L 84.0 215.0 L 101.0 196.0 L 116.0 168.0 L 142.0 142.0 L 182.0 110.0 L 181.0 108.0 L 171.0 106.0 L 152.0 106.0 L 135.0 111.0 L 125.0 118.0 L 123.0 117.0 Z M 204.0 135.0 L 203.0 135.0 L 180.0 162.0 L 172.0 173.0 L 169.0 180.0 L 169.0 183.0 L 168.0 184.0 L 168.0 248.0 L 171.0 248.0 L 186.0 243.0 L 198.0 237.0 L 212.0 227.0 L 227.0 212.0 L 235.0 201.0 L 243.0 186.0 L 247.0 173.0 L 246.0 173.0 L 240.0 182.0 L 224.0 197.0 L 211.0 204.0 L 205.0 205.0 L 204.0 204.0 Z M 458.0 135.0 L 455.0 142.0 L 455.0 167.0 L 456.0 168.0 L 456.0 171.0 L 462.0 178.0 L 466.0 180.0 L 511.0 180.0 L 516.0 178.0 L 520.0 174.0 L 523.0 167.0 L 523.0 141.0 L 521.0 136.0 L 516.0 131.0 L 506.0 128.0 L 503.0 129.0 L 499.0 129.0 L 498.0 128.0 L 496.0 129.0 L 493.0 128.0 L 490.0 129.0 L 486.0 129.0 L 485.0 128.0 L 472.0 128.0 L 471.0 129.0 L 467.0 129.0 L 461.0 132.0 Z M 788.0 130.0 L 786.0 129.0 L 774.0 129.0 L 773.0 128.0 L 766.0 128.0 L 765.0 129.0 L 740.0 129.0 L 736.0 131.0 L 731.0 136.0 L 729.0 141.0 L 729.0 169.0 L 731.0 173.0 L 736.0 178.0 L 740.0 180.0 L 774.0 180.0 L 774.0 171.0 L 773.0 170.0 L 766.0 170.0 L 765.0 171.0 L 752.0 170.0 L 751.0 171.0 L 746.0 171.0 L 743.0 170.0 L 740.0 167.0 L 739.0 164.0 L 739.0 144.0 L 743.0 139.0 L 746.0 138.0 L 779.0 138.0 L 781.0 140.0 L 781.0 185.0 L 780.0 188.0 L 775.0 192.0 L 732.0 192.0 L 732.0 202.0 L 779.0 202.0 L 784.0 200.0 L 789.0 195.0 L 791.0 190.0 L 791.0 134.0 Z M 269.0 47.0 L 266.0 48.0 L 193.0 113.0 L 184.0 120.0 L 152.0 151.0 L 135.0 174.0 L 132.0 180.0 L 132.0 187.0 L 133.0 188.0 L 138.0 189.0 L 142.0 187.0 L 164.0 165.0 Z M 572.0 135.0 L 569.0 142.0 L 569.0 166.0 L 572.0 174.0 L 575.0 177.0 L 581.0 180.0 L 631.0 180.0 L 631.0 171.0 L 630.0 170.0 L 584.0 170.0 L 580.0 166.0 L 580.0 143.0 L 584.0 139.0 L 592.0 139.0 L 593.0 138.0 L 595.0 139.0 L 617.0 138.0 L 618.0 139.0 L 622.0 139.0 L 625.0 142.0 L 625.0 148.0 L 623.0 150.0 L 587.0 150.0 L 587.0 160.0 L 627.0 160.0 L 633.0 157.0 L 636.0 152.0 L 636.0 140.0 L 631.0 132.0 L 628.0 130.0 L 621.0 128.0 L 617.0 128.0 L 616.0 129.0 L 614.0 128.0 L 587.0 128.0 L 586.0 129.0 L 578.0 130.0 Z M 378.0 129.0 L 378.0 138.0 L 379.0 139.0 L 382.0 139.0 L 383.0 138.0 L 385.0 139.0 L 392.0 139.0 L 393.0 138.0 L 420.0 138.0 L 423.0 139.0 L 427.0 144.0 L 427.0 169.0 L 426.0 170.0 L 385.0 170.0 L 382.0 167.0 L 382.0 162.0 L 383.0 160.0 L 387.0 158.0 L 420.0 158.0 L 420.0 149.0 L 419.0 148.0 L 386.0 148.0 L 385.0 149.0 L 378.0 150.0 L 373.0 155.0 L 371.0 161.0 L 372.0 171.0 L 378.0 178.0 L 383.0 180.0 L 433.0 180.0 L 437.0 177.0 L 438.0 174.0 L 438.0 142.0 L 435.0 135.0 L 428.0 130.0 L 421.0 129.0 L 420.0 128.0 L 412.0 128.0 L 411.0 129.0 L 381.0 129.0 L 379.0 128.0 Z M 289.0 107.0 L 289.0 180.0 L 300.0 180.0 L 300.0 140.0 L 302.0 138.0 L 338.0 138.0 L 340.0 139.0 L 345.0 145.0 L 345.0 180.0 L 355.0 180.0 L 355.0 141.0 L 353.0 136.0 L 349.0 132.0 L 343.0 129.0 L 301.0 128.0 L 300.0 127.0 L 300.0 108.0 L 299.0 107.0 Z M 466.0 143.0 L 470.0 139.0 L 473.0 138.0 L 505.0 138.0 L 510.0 140.0 L 513.0 145.0 L 513.0 149.0 L 512.0 150.0 L 512.0 166.0 L 511.0 168.0 L 508.0 170.0 L 470.0 170.0 L 466.0 166.0 Z M 655.0 134.0 L 651.0 143.0 L 651.0 180.0 L 662.0 180.0 L 662.0 144.0 L 665.0 140.0 L 669.0 138.0 L 695.0 138.0 L 698.0 139.0 L 702.0 143.0 L 703.0 146.0 L 703.0 180.0 L 713.0 180.0 L 713.0 141.0 L 712.0 138.0 L 707.0 132.0 L 700.0 129.0 L 678.0 128.0 L 677.0 129.0 L 664.0 129.0 Z M 541.0 107.0 L 541.0 180.0 L 551.0 180.0 L 551.0 168.0 L 552.0 167.0 L 552.0 164.0 L 551.0 163.0 L 551.0 112.0 L 552.0 111.0 L 552.0 108.0 L 551.0 107.0 Z" fill="#000000" fill-rule="evenodd"/>
</svg>
